<?xml version="1.0" encoding="UTF-8"?>
<!DOCTYPE svg PUBLIC "-//W3C//DTD SVG 1.1//EN" "http://www.w3.org/Graphics/SVG/1.1/DTD/svg11.dtd">
<!-- Creator: CorelDRAW -->
<svg xmlns="http://www.w3.org/2000/svg" xml:space="preserve" width="324.867mm" height="67.2121mm" version="1.1" style="shape-rendering:geometricPrecision; text-rendering:geometricPrecision; image-rendering:optimizeQuality; fill-rule:evenodd; clip-rule:evenodd"
viewBox="0 0 10229.28 2116.34"
 xmlns:xlink="http://www.w3.org/1999/xlink"
 xmlns:xodm="http://www.corel.com/coreldraw/odm/2003">
 <defs>
  <style type="text/css">
   <![CDATA[
    .fil0 {fill:white}
    .fil1 {fill:white;fill-rule:nonzero}
   ]]>
  </style>
 </defs>
 <g id="Capa_x0020_1">
  <metadata id="CorelCorpID_0Corel-Layer"/>
  <path class="fil0" d="M1556.73 899.52c205.48,90.93 351.91,290.97 365.79,526.65 2.86,24.41 4.28,49.72 4.28,75.94 0,180.49 -64.53,322.65 -193.59,426.47 -57.61,46.35 -124.6,82.35 -200.97,108.01 -62.96,24.66 -130.97,39.25 -202.04,41.8 -39.99,3.96 -81.77,5.94 -125.35,5.94l-223.35 -0 -185.98 0c-108.51,0 -196.49,-87.97 -196.49,-196.49 0,-88.89 59.02,-163.99 140,-188.25 17.89,-5.36 36.86,-8.24 56.49,-8.24l315.43 0c11.06,0 22.05,-0.24 32.91,-0.71l165.05 0 18.01 0 0 -0.71c116.18,-9.18 207.6,-106.36 207.6,-224.89 0,-118.54 -91.42,-215.71 -207.6,-224.89l0 -0.01 -0.09 0c-5.92,-0.47 -11.89,-0.71 -17.93,-0.71 -6.03,0 -12.01,0.24 -17.93,0.71l-495.47 0c-20.38,0 -40.03,-3.1 -58.51,-8.86 -79.94,-24.9 -137.98,-99.49 -137.98,-187.63 0,-108.52 87.97,-196.49 196.49,-196.49l98.18 0c97.04,0 168.36,-17.47 213.96,-52.4 45.61,-34.93 68.41,-88.3 68.41,-160.11 0,-71.81 -22.8,-124.69 -68.41,-158.65 -45.61,-33.96 -116.93,-50.94 -213.96,-50.94l-381.35 0 0 422.1 -1.65 996c0,140.74 -114.09,254.83 -254.83,254.83 -140.74,0 -254.83,-114.09 -254.83,-254.83 0,-0.37 0,-0.74 0,-1.11l-1.05 -1533.44c-0.06,-89.27 23.77,-157.69 71.32,-205.23 47.55,-47.55 116.93,-71.32 208.14,-71.32l710.3 0c147.49,0 273.15,21.83 376.98,65.5 103.83,43.67 182.91,105.28 237.25,184.85 54.34,79.57 81.51,172.72 81.51,279.46 0,120.32 -34.45,223.18 -103.34,308.57 -8.13,10.08 -16.61,19.79 -25.44,29.11z"/>
  <path class="fil0" d="M9171.11 0c-584.41,0 -1058.17,473.76 -1058.17,1058.17 0,584.41 473.76,1058.17 1058.17,1058.17 247.72,0 475.55,-85.14 655.84,-227.74l-289.11 -289.11c-21.25,-21.25 -52.86,-25.62 -79.09,-10.94 -231.67,129.68 -530.13,96.06 -727.12,-100.93 -237.58,-237.58 -237.59,-622.79 0,-860.38 237.59,-237.59 622.79,-237.59 860.38,0 196.99,196.99 230.61,495.45 100.94,727.12 -14.68,26.22 -10.31,57.84 10.94,79.09l290.03 290.03c147.16,-181.77 235.37,-413.22 235.37,-665.31 0,-584.41 -473.76,-1058.17 -1058.17,-1058.17zm0 1425.5c202.87,0 367.33,-164.46 367.33,-367.33 0,-202.87 -164.46,-367.33 -367.33,-367.33 -202.87,0 -367.33,164.46 -367.33,367.33 0,202.87 164.46,367.33 367.33,367.33z"/>
  <path class="fil1" d="M3084.07 2116.34c-149.43,0 -281.4,-18.92 -395.91,-56.77 -114.5,-37.84 -211.05,-94.61 -289.65,-170.3 -78.6,-75.69 -137.79,-170.3 -177.57,-283.83 -39.78,-113.53 -59.68,-245.02 -59.68,-394.45l0 -934.45c0,-89.27 23.29,-156.71 69.87,-202.32 46.58,-45.61 112.56,-68.41 197.95,-68.41 87.33,0 153.8,22.8 199.41,68.41 45.61,45.61 68.41,113.05 68.41,202.32l0 940.28c0,149.43 32.99,262 98.97,337.69 65.99,75.69 162.05,113.53 288.2,113.53 124.21,0 219.3,-37.84 285.28,-113.53 65.99,-75.69 98.98,-188.25 98.98,-337.69l0 -940.28c0,-89.27 22.8,-156.71 68.41,-202.32 45.61,-45.61 111.1,-68.41 196.49,-68.41 85.39,0 150.41,22.8 195.04,68.41 44.64,45.61 66.95,113.05 66.95,202.32l0 934.45c0,199.89 -34.45,367.28 -103.34,502.16 -68.89,134.88 -171.27,235.79 -307.12,302.75 -135.85,66.96 -302.75,100.43 -500.7,100.43z"/>
  <path class="fil1" d="M5115.99 2116.34c-77.63,0 -158.65,-5.34 -243.07,-16.01 -84.42,-10.67 -164.48,-26.69 -240.16,-48.03 -75.69,-21.35 -143.61,-46.58 -203.77,-75.69 -52.4,-25.23 -89.27,-58.71 -110.62,-100.43 -21.35,-41.72 -29.11,-85.88 -23.29,-132.45 5.82,-46.58 22.32,-87.82 49.49,-123.72 27.17,-35.9 63.07,-60.16 107.71,-72.78 44.64,-12.61 95.1,-6.31 151.38,18.92 73.75,34.93 157.2,62.1 250.35,81.51 93.15,19.41 180.49,29.11 262,29.11 128.09,0 217.85,-16.98 269.28,-50.94 51.43,-33.96 77.14,-76.17 77.14,-126.63 0,-44.64 -17.95,-80.54 -53.85,-107.71 -35.91,-27.17 -99.46,-50.46 -190.68,-69.86l-340.59 -72.78c-186.31,-38.81 -325.07,-106.74 -416.28,-203.77 -91.21,-97.04 -136.82,-222.21 -136.82,-375.53 0,-100.92 20.86,-192.62 62.59,-275.1 41.72,-82.48 100.92,-152.83 177.57,-211.05 76.66,-58.22 167.87,-103.34 273.64,-135.37 105.77,-32.02 223.67,-48.03 353.7,-48.03 100.91,0 203.29,11.16 307.12,33.48 103.83,22.32 193.59,55.79 269.27,100.43 44.64,23.29 76.66,55.31 96.07,96.07 19.41,40.75 27.17,82.97 23.29,126.63 -3.88,43.66 -18.92,81.99 -45.12,114.99 -26.2,32.99 -61.13,54.82 -104.8,65.5 -43.67,10.67 -95.58,3.4 -155.74,-21.83 -56.28,-25.23 -119.84,-44.15 -190.67,-56.77 -70.84,-12.61 -139.25,-18.92 -205.23,-18.92 -71.81,0 -132.94,8.25 -183.4,24.75 -50.46,16.49 -88.79,40.27 -114.99,71.32 -26.2,31.05 -39.3,66.96 -39.3,107.71 0,40.75 16.98,75.2 50.94,103.34 33.96,28.14 96.55,51.91 187.76,71.32l337.69 72.78c188.25,40.75 328.95,107.71 422.1,200.86 93.15,93.15 139.73,214.45 139.73,363.88 0,100.92 -20.38,192.13 -61.13,273.64 -40.75,81.51 -98.98,150.89 -174.66,208.14 -75.69,57.25 -166.9,101.4 -273.64,132.45 -106.74,31.05 -227.06,46.58 -360.97,46.58z"/>
  <path class="fil1" d="M7284.74 2116.34c-227.06,0 -422.1,-43.67 -585.12,-131 -163.02,-87.33 -287.71,-210.57 -374.07,-369.71 -86.36,-159.14 -129.54,-345.44 -129.54,-558.92 0,-159.14 24.74,-303.72 74.23,-433.75 49.49,-130.02 121.29,-241.62 215.42,-334.77 94.12,-93.15 208.62,-164.48 343.5,-213.96 134.88,-49.49 286.74,-74.23 455.58,-74.23 89.27,0 181.94,10.19 278.01,30.56 96.07,20.38 180.97,50.94 254.72,91.7 54.34,29.11 92.19,65.99 113.53,110.62 21.35,44.64 28.63,90.24 21.83,136.82 -6.79,46.58 -23.77,88.3 -50.94,125.18 -27.17,36.87 -62.1,61.62 -104.8,74.23 -42.7,12.61 -89.27,6.31 -139.73,-18.92 -58.22,-27.17 -115.96,-48.03 -173.21,-62.59 -57.25,-14.56 -116.93,-21.83 -179.03,-21.83 -120.32,0 -220.76,22.8 -301.29,68.41 -80.54,45.61 -141.19,112.08 -181.94,199.41 -40.75,87.33 -61.13,195.04 -61.13,323.13 0,128.09 20.38,236.28 61.13,324.58 40.75,88.3 101.4,155.26 181.94,200.87 80.54,45.61 180.97,68.41 301.29,68.41 50.46,0 104.8,-6.31 163.02,-18.92 58.22,-12.61 115.47,-32.51 171.75,-59.68 58.22,-25.23 110.13,-32.02 155.74,-20.38 45.61,11.64 82.48,34.93 110.62,69.86 28.14,34.94 46.09,75.2 53.85,120.81 7.76,45.61 1.46,90.73 -18.92,135.37 -20.38,44.63 -55.8,80.54 -106.25,107.71 -67.92,40.75 -151.86,72.77 -251.81,96.06 -99.95,23.29 -199.41,34.94 -298.39,34.94z"/>
 </g>
</svg>
