<?xml version="1.0" encoding="UTF-8"?>
<!DOCTYPE svg PUBLIC "-//W3C//DTD SVG 1.1//EN" "http://www.w3.org/Graphics/SVG/1.1/DTD/svg11.dtd">
<!-- Creator: CorelDRAW -->
<svg xmlns="http://www.w3.org/2000/svg" xml:space="preserve" width="324.867mm" height="67.2121mm" version="1.1" style="shape-rendering:geometricPrecision; text-rendering:geometricPrecision; image-rendering:optimizeQuality; fill-rule:evenodd; clip-rule:evenodd"
viewBox="0 0 9596.48 1985.42"
 xmlns:xlink="http://www.w3.org/1999/xlink"
 xmlns:xodm="http://www.corel.com/coreldraw/odm/2003">
 <defs>
  <style type="text/css">
   <![CDATA[
    .fil0 {fill:#011F67}
    .fil1 {fill:#011F67;fill-rule:nonzero}
   ]]>
  </style>
 </defs>
 <g id="Capa_x0020_1">
  <metadata id="CorelCorpID_0Corel-Layer"/>
  <path class="fil0" d="M1460.43 843.87c192.77,85.3 330.14,272.97 343.16,494.07 2.68,22.9 4.02,46.65 4.02,71.24 0,169.32 -60.54,302.69 -181.61,400.09 -54.05,43.48 -116.89,77.26 -188.53,101.33 -59.06,23.13 -122.86,36.82 -189.54,39.21 -37.52,3.71 -76.71,5.57 -117.6,5.57l-209.54 -0 -174.48 0c-101.8,0 -184.34,-82.53 -184.34,-184.34 0,-83.39 55.37,-153.84 131.34,-176.61 16.78,-5.03 34.58,-7.73 53,-7.73l295.91 0c10.37,0 20.68,-0.22 30.87,-0.67l154.84 0 16.9 0 0 -0.67c108.99,-8.61 194.76,-99.78 194.76,-210.98 0,-111.21 -85.77,-202.37 -194.76,-210.98l0 -0.01 -0.08 0c-5.55,-0.44 -11.16,-0.66 -16.82,-0.66 -5.66,0 -11.27,0.23 -16.82,0.66l-464.82 0c-19.12,0 -37.55,-2.91 -54.89,-8.31 -75,-23.36 -129.45,-93.34 -129.45,-176.03 0,-101.81 82.53,-184.34 184.34,-184.34l92.1 0c91.03,0 157.94,-16.39 200.73,-49.16 42.79,-32.77 64.18,-82.84 64.18,-150.2 0,-67.37 -21.39,-116.98 -64.18,-148.84 -42.79,-31.86 -109.7,-47.79 -200.73,-47.79l-357.76 0 0 395.99 -1.54 934.39c0,132.03 -107.03,239.06 -239.06,239.06 -132.03,0 -239.06,-107.03 -239.06,-239.06 0,-0.35 0,-0.7 0,-1.05l-0.98 -1438.58c-0.05,-83.75 22.3,-147.93 66.91,-192.53 44.6,-44.6 109.7,-66.91 195.27,-66.91l666.36 0c138.37,0 256.26,20.48 353.66,61.45 97.4,40.97 171.6,98.77 222.58,173.42 50.98,74.65 76.47,162.04 76.47,262.18 0,112.88 -32.32,209.37 -96.95,289.48 -7.63,9.46 -15.59,18.56 -23.87,27.31z"/>
  <path class="fil0" d="M8603.76 0c-548.26,0 -992.71,444.45 -992.71,992.71 0,548.26 444.45,992.71 992.71,992.71 232.39,0 446.13,-79.87 615.27,-213.65l-271.22 -271.22c-19.94,-19.94 -49.59,-24.03 -74.19,-10.26 -217.34,121.66 -497.33,90.12 -682.14,-94.69 -222.89,-222.89 -222.89,-584.26 0,-807.15 222.89,-222.89 584.26,-222.89 807.15,0 184.81,184.81 216.34,464.8 94.69,682.14 -13.77,24.6 -9.67,54.26 10.26,74.19l272.09 272.09c138.05,-170.52 220.81,-387.66 220.81,-624.15 0,-548.26 -444.45,-992.71 -992.71,-992.71zm0 1337.32c190.32,0 344.61,-154.29 344.61,-344.61 0,-190.32 -154.29,-344.61 -344.61,-344.61 -190.32,0 -344.61,154.29 -344.61,344.61 0,190.32 154.29,344.61 344.61,344.61z"/>
  <path class="fil1" d="M2893.28 1985.42c-140.19,0 -264,-17.75 -371.41,-53.25 -107.42,-35.5 -198,-88.76 -271.73,-159.76 -73.74,-71.01 -129.27,-159.76 -166.59,-266.27 -37.32,-106.51 -55.99,-229.86 -55.99,-370.05l0 -876.65c0,-83.75 21.85,-147.02 65.55,-189.8 43.7,-42.79 105.6,-64.18 185.7,-64.18 81.93,0 144.29,21.39 187.07,64.18 42.79,42.79 64.18,106.05 64.18,189.8l0 882.11c0,140.19 30.95,245.79 92.85,316.8 61.9,71 152.03,106.51 270.37,106.51 116.52,0 205.73,-35.5 267.64,-106.51 61.9,-71.01 92.85,-176.61 92.85,-316.8l0 -882.11c0,-83.75 21.39,-147.02 64.18,-189.8 42.79,-42.79 104.23,-64.18 184.34,-64.18 80.11,0 141.1,21.39 182.98,64.18 41.88,42.79 62.81,106.05 62.81,189.8l0 876.65c0,187.53 -32.32,344.56 -96.95,471.1 -64.63,126.53 -160.67,221.21 -288.12,284.02 -127.45,62.81 -284.02,94.22 -469.73,94.22z"/>
  <path class="fil1" d="M4799.51 1985.42c-72.82,0 -148.84,-5.01 -228.04,-15.02 -79.2,-10.01 -154.3,-25.03 -225.3,-45.06 -71,-20.02 -134.73,-43.7 -191.17,-71 -49.16,-23.67 -83.75,-55.07 -103.78,-94.22 -20.03,-39.14 -27.31,-80.56 -21.85,-124.26 5.46,-43.7 20.94,-82.38 46.42,-116.07 25.49,-33.68 59.17,-56.44 101.05,-68.28 41.88,-11.83 89.21,-5.92 142.01,17.75 69.18,32.77 147.47,58.26 234.86,76.47 87.39,18.21 169.32,27.31 245.79,27.31 120.16,0 204.37,-15.93 252.62,-47.79 48.25,-31.86 72.37,-71.46 72.37,-118.8 0,-41.88 -16.84,-75.56 -50.52,-101.05 -33.68,-25.49 -93.31,-47.34 -178.88,-65.54l-319.52 -68.28c-174.78,-36.41 -304.96,-100.14 -390.53,-191.17 -85.57,-91.03 -128.36,-208.46 -128.36,-352.3 0,-94.67 19.57,-180.7 58.72,-258.08 39.14,-77.38 94.67,-143.38 166.59,-198 71.92,-54.62 157.49,-96.95 256.71,-126.99 99.23,-30.04 209.83,-45.06 331.82,-45.06 94.67,0 190.71,10.47 288.12,31.41 97.4,20.94 181.61,52.34 252.61,94.22 41.88,21.85 71.92,51.89 90.12,90.12 18.21,38.23 25.49,77.83 21.85,118.8 -3.64,40.96 -17.75,76.92 -42.33,107.87 -24.58,30.95 -57.35,51.43 -98.31,61.45 -40.97,10.01 -89.67,3.19 -146.11,-20.48 -52.8,-23.67 -112.43,-41.42 -178.88,-53.25 -66.46,-11.83 -130.63,-17.75 -192.53,-17.75 -67.37,0 -124.72,7.74 -172.05,23.22 -47.34,15.47 -83.29,37.78 -107.87,66.91 -24.58,29.13 -36.87,62.81 -36.87,101.05 0,38.23 15.93,70.55 47.79,96.95 31.86,26.4 90.58,48.7 176.15,66.91l316.8 68.28c176.6,38.23 308.6,101.05 395.99,188.44 87.39,87.39 131.09,201.18 131.09,341.37 0,94.67 -19.12,180.25 -57.35,256.71 -38.23,76.47 -92.85,141.56 -163.86,195.27 -71,53.71 -156.58,95.13 -256.71,124.26 -100.14,29.13 -213.02,43.7 -338.64,43.7z"/>
  <path class="fil1" d="M6834.09 1985.42c-213.02,0 -395.99,-40.97 -548.93,-122.89 -152.93,-81.93 -269.91,-197.54 -350.93,-346.84 -81.02,-149.29 -121.53,-324.07 -121.53,-524.35 0,-149.29 23.21,-284.93 69.64,-406.92 46.42,-121.98 113.79,-226.67 202.09,-314.06 88.3,-87.39 195.72,-154.3 322.25,-200.72 126.54,-46.43 269,-69.64 427.4,-69.64 83.75,0 170.69,9.56 260.81,28.67 90.12,19.12 169.78,47.79 238.96,86.03 50.98,27.31 86.48,61.9 106.51,103.78 20.03,41.88 26.85,84.66 20.48,128.36 -6.37,43.7 -22.3,82.84 -47.79,117.43 -25.49,34.59 -58.26,57.81 -98.31,69.64 -40.06,11.83 -83.75,5.92 -131.09,-17.75 -54.62,-25.49 -108.78,-45.06 -162.49,-58.72 -53.71,-13.66 -109.7,-20.48 -167.96,-20.48 -112.88,0 -207.1,21.39 -282.66,64.18 -75.56,42.79 -132.45,105.14 -170.69,187.07 -38.23,81.93 -57.35,182.97 -57.35,303.14 0,120.16 19.12,221.67 57.35,304.5 38.23,82.84 95.13,145.65 170.69,188.44 75.56,42.79 169.78,64.18 282.66,64.18 47.34,0 98.32,-5.92 152.94,-17.75 54.62,-11.83 108.33,-30.5 161.13,-55.98 54.62,-23.67 103.32,-30.04 146.11,-19.12 42.79,10.92 77.38,32.77 103.78,65.54 26.4,32.77 43.24,70.55 50.52,113.34 7.28,42.79 1.37,85.12 -17.75,126.99 -19.12,41.87 -52.34,75.56 -99.68,101.05 -63.72,38.23 -142.46,68.27 -236.23,90.12 -93.76,21.85 -187.07,32.77 -279.93,32.77z"/>
 </g>
</svg>
