<svg xmlns="http://www.w3.org/2000/svg" xmlns:xlink="http://www.w3.org/1999/xlink" xml:space="preserve" viewBox="0 0 24589.14 4036.89" style="shape-rendering:geometricPrecision;text-rendering:geometricPrecision;image-rendering:optimizeQuality;fill-rule:evenodd;clip-rule:evenodd">
 <defs>
  <style type="text/css">
   .fil1 {fill:#6CF8BB}
   .fil0 {fill:white}
   .fil3 {fill:#6CF8BB;fill-rule:nonzero}
   .fil2 {fill:white;fill-rule:nonzero}
  </style>
 </defs>
 <g>
  <path class="fil0" d="M6608.96 2415.39c273.82,121.17 468.94,387.74 487.44,701.8 3.81,32.53 5.71,66.26 5.71,101.19 0,240.51 -85.99,429.95 -257.96,568.3 -76.77,61.76 -166.04,109.74 -267.8,143.93 -83.89,32.86 -174.52,52.3 -269.23,55.7 -53.29,5.27 -109.16,7.91 -167.04,7.91l-356.65 -0c-144.41,0 -261.84,-130.31 -261.84,-261.84 0,-131.53 78.64,-218.52 186.56,-250.86 23.84,-7.14 49.11,-10.98 75.28,-10.98l231.51 0c14.74,0 29.38,-0.32 43.86,-0.95l219.95 0 24 0 0 -0.95c154.82,-12.23 276.64,-141.73 276.64,-299.68 0,-157.96 -121.82,-287.45 -276.64,-299.68l0 -0.01 -0.11 0c-7.88,-0.62 -15.85,-0.94 -23.89,-0.94 -8.04,0 -16,0.32 -23.89,0.94l-471.42 0c-27.16,0 -53.34,-4.13 -77.97,-11.81 -106.53,-33.19 -183.87,-119 -183.87,-250.03 0,-131.03 117.23,-261.57 261.84,-261.84 23.14,-0.04 71.52,-9.04 95.55,-14.15 54.21,-11.54 98.13,-30.05 131.59,-55.67 60.77,-46.55 91.16,-117.67 91.16,-213.35 0,-95.69 -30.39,-166.16 -91.16,-211.42 -60.77,-45.26 -155.82,-67.89 -285.12,-67.89l-508.17 0 0 562.48 -2.19 1327.24c0,187.54 -152.03,339.57 -339.57,339.57 -187.54,0 -339.57,-152.03 -339.57,-339.57 0,-0.5 0,-0.99 0,-1.49l-1.4 -2043.4c-0.08,-118.96 31.68,-210.13 95.04,-273.48 63.36,-63.36 155.82,-95.04 277.36,-95.04l946.52 0c196.54,0 364,29.09 502.36,87.28 138.36,58.19 243.74,140.29 316.15,246.33 72.41,106.03 108.62,230.17 108.62,372.4 0,160.34 -45.91,297.4 -137.71,411.19 -10.84,13.44 -22.14,26.37 -33.9,38.79z"/>
  <path class="fil1" d="M16755.58 3116.3c270.34,0 489.49,-219.15 489.49,-489.49 0,-270.34 -219.15,-489.49 -489.49,-489.49 -270.34,0 -489.49,219.15 -489.49,489.49 0,270.34 219.15,489.49 489.49,489.49z"/>
  <path class="fil0" d="M16755.58 1216.73c-778.76,0 -1410.08,631.31 -1410.08,1410.08 0,778.76 631.31,1410.08 1410.08,1410.08 330.1,0 633.7,-113.45 873.94,-303.48l-385.25 -385.25c-28.32,-28.32 -70.44,-34.14 -105.39,-14.58 -308.71,172.8 -706.43,128 -968.93,-134.5 -316.59,-316.59 -316.6,-829.9 0,-1146.5 316.6,-316.6 829.9,-316.6 1146.5,0 262.5,262.5 307.3,660.22 134.5,968.93 -19.56,34.94 -13.74,77.07 14.58,105.39l386.48 386.48c196.1,-242.22 313.64,-550.64 313.64,-886.57 0,-778.76 -631.31,-1410.08 -1410.08,-1410.08z"/>
  <path class="fil2" d="M8644.23 4036.89c-199.13,0 -374.99,-25.22 -527.57,-75.64 -152.58,-50.43 -281.24,-126.07 -385.98,-226.93 -104.74,-100.86 -183.61,-226.93 -236.63,-378.22 -53.02,-151.29 -79.53,-326.5 -79.53,-525.63l0 -1245.22c0,-118.96 31.03,-208.83 93.1,-269.6 62.07,-60.77 149.99,-91.16 263.78,-91.16 116.38,0 204.95,30.39 265.73,91.16 60.77,60.77 91.16,150.64 91.16,269.6l0 1252.97c0,199.13 43.96,349.12 131.89,449.99 87.93,100.86 215.94,151.29 384.04,151.29 165.51,0 292.23,-50.43 380.16,-151.29 87.93,-100.86 131.89,-250.86 131.89,-449.99l0 -1252.97c0,-118.96 30.39,-208.83 91.16,-269.6 60.77,-60.77 148.05,-91.16 261.84,-91.16 113.79,0 200.43,30.39 259.91,91.16 59.48,60.77 89.22,150.64 89.22,269.6l0 1245.22c0,266.37 -45.9,489.42 -137.71,669.16 -91.81,179.73 -228.22,314.21 -409.25,403.43 -181.03,89.22 -403.43,133.83 -667.22,133.83z"/>
  <path class="fil2" d="M11351.9 4036.89c-103.44,0 -211.42,-7.11 -323.91,-21.34 -112.49,-14.22 -219.17,-35.56 -320.03,-64.01 -100.86,-28.44 -191.37,-62.07 -271.54,-100.86 -69.82,-33.62 -118.96,-78.23 -147.41,-133.83 -28.45,-55.6 -38.79,-114.44 -31.03,-176.5 7.76,-62.07 29.74,-117.02 65.94,-164.87 36.21,-47.84 84.05,-80.17 143.53,-96.98 59.48,-16.81 126.72,-8.4 201.72,25.22 98.27,46.55 209.48,82.76 333.61,108.62 124.13,25.86 240.51,38.79 349.12,38.79 170.69,0 290.29,-22.63 358.83,-67.89 68.53,-45.26 102.8,-101.5 102.8,-168.74 0,-59.48 -23.92,-107.32 -71.76,-143.53 -47.85,-36.21 -132.54,-67.24 -254.09,-93.1l-453.86 -96.98c-248.27,-51.72 -433.17,-142.24 -554.72,-271.54 -121.55,-129.31 -182.32,-296.11 -182.32,-500.41 0,-134.48 27.8,-256.67 83.4,-366.58 55.6,-109.91 134.48,-203.66 236.63,-281.24 102.15,-77.58 223.7,-137.71 364.64,-180.38 140.94,-42.67 298.05,-64 471.32,-64 134.47,0 270.89,14.87 409.25,44.61 138.36,29.74 257.96,74.35 358.82,133.83 59.48,31.03 102.15,73.71 128.01,128.01 25.86,54.31 36.21,110.56 31.03,168.75 -5.17,58.18 -25.21,109.26 -60.13,153.23 -34.91,43.96 -81.46,73.05 -139.65,87.28 -58.19,14.22 -127.37,4.53 -207.54,-29.09 -75,-33.62 -159.69,-58.83 -254.08,-75.64 -94.4,-16.81 -185.56,-25.21 -273.48,-25.21 -95.69,0 -177.15,10.99 -244.39,32.98 -67.24,21.98 -118.31,53.66 -153.23,95.04 -34.91,41.38 -52.37,89.22 -52.37,143.53 0,54.31 22.63,100.21 67.89,137.71 45.26,37.5 128.66,69.18 250.21,95.04l449.99 96.98c250.85,54.31 438.35,143.53 562.48,267.66 124.13,124.13 186.2,285.77 186.2,484.9 0,134.48 -27.16,256.03 -81.46,364.64 -54.31,108.62 -131.89,201.07 -232.75,277.36 -100.86,76.29 -222.4,135.13 -364.64,176.5 -142.24,41.38 -302.58,62.07 -481.02,62.07z"/>
  <path class="fil2" d="M14241.88 4036.89c-302.58,0 -562.48,-58.19 -779.71,-174.56 -217.23,-116.38 -383.39,-280.6 -498.47,-492.66 -115.08,-212.06 -172.62,-460.32 -172.62,-744.8 0,-212.06 32.97,-404.73 98.92,-578 65.94,-173.27 161.63,-321.97 287.06,-446.1 125.42,-124.13 278,-219.17 457.74,-285.12 179.74,-65.95 382.1,-98.92 607.09,-98.92 118.96,0 242.45,13.57 370.46,40.73 128.01,27.16 241.16,67.89 339.43,122.19 72.41,38.79 122.84,87.93 151.29,147.41 28.45,59.48 38.15,120.25 29.09,182.32 -9.05,62.07 -31.68,117.67 -67.89,166.8 -36.21,49.13 -82.76,82.11 -139.65,98.92 -56.9,16.81 -118.96,8.4 -186.2,-25.21 -77.58,-36.21 -154.52,-64.01 -230.81,-83.4 -76.29,-19.4 -155.82,-29.09 -238.57,-29.09 -160.34,0 -294.17,30.39 -401.49,91.16 -107.32,60.77 -188.14,149.35 -242.45,265.72 -54.31,116.37 -81.46,259.9 -81.46,430.59 0,170.68 27.16,314.86 81.46,432.53 54.31,117.67 135.13,206.89 242.45,267.67 107.32,60.77 241.16,91.16 401.49,91.16 67.24,0 139.65,-8.41 217.23,-25.22 77.58,-16.81 153.87,-43.32 228.87,-79.52 77.58,-33.62 146.76,-42.67 207.54,-27.16 60.77,15.52 109.91,46.55 147.41,93.1 37.5,46.55 61.42,100.22 71.76,160.99 10.35,60.77 1.94,120.9 -25.21,180.38 -27.15,59.48 -74.35,107.32 -141.59,143.53 -90.51,54.31 -202.36,96.98 -335.55,128.01 -133.19,31.04 -265.72,46.55 -397.62,46.55z"/>
  <g>
   <path class="fil1" d="M2293.03 1746.39c0,321.51 -260.64,582.15 -582.15,582.15 -321.51,0 -582.15,-260.64 -582.15,-582.15 0,-321.52 260.64,-582.15 582.15,-582.15 321.51,0 582.15,260.63 582.15,582.15z"/>
   <path class="fil0" d="M3369.53 1275.39c33.55,138.97 52.95,281.88 52.21,426.27 0.25,50.48 -1.7,100.11 -5.69,148.92 -19.71,283.62 -108.66,548.16 -250.02,776.89 -38.04,66.94 -79.36,132.07 -123.25,195.53l-487.55 -481.85c-33.87,-33.47 -40.6,-83.78 -17.33,-125.34 205.5,-367.15 152.23,-840.15 -159.96,-1152.34 -376.53,-376.53 -987,-376.53 -1363.53,0 -376.53,376.53 -376.52,987.01 0,1363.54 312.19,312.19 785.2,365.47 1152.34,159.96 41.56,-23.26 91.42,-16.1 125.34,17.34l518.88 511.33 -426.74 457.46 -201.76 176.84c-70.62,63.06 -136.71,111.88 -216.11,170.96 -101.3,75.37 -180.68,106.48 -255.46,103.49 -74.79,2.99 -154.17,-28.12 -255.46,-103.49 -79.4,-59.08 -145.49,-107.89 -216.11,-170.96l-201.76 -176.84 -469.09 -502.85c-116.33,-138.76 -223.52,-285.79 -312.73,-442.76 -141.36,-228.73 -230.31,-493.26 -250.02,-776.89 -3.99,-48.81 -5.94,-98.44 -5.69,-148.92 -0.75,-144.39 18.66,-287.3 52.21,-426.27 163.13,-675.74 815,-1283.52 1658.65,-1275.31 843.65,-8.21 1495.52,599.57 1658.65,1275.31z"/>
  </g>
  <path class="fil3" d="M19027.21 1705.2c0,-98.68 20.04,-184.72 60.14,-258.11 40.09,-73.39 96.21,-130.14 168.37,-170.23 72.16,-40.09 155.73,-60.13 250.71,-60.13 96.21,0 181.02,18.81 254.41,56.43 73.39,37.62 130.75,90.67 172.07,159.13 41.32,68.46 62.6,148.95 63.84,241.46 0,33.3 -2.47,62.91 -7.4,88.81l-690.16 0 0 7.4c6.17,69.08 28.37,123.35 66.61,162.83 38.24,39.47 90.67,59.21 157.28,59.21 53.04,0 97.14,-11.41 132.29,-34.23 35.16,-22.82 58.29,-56.43 69.39,-100.84l257.19 0c-9.87,62.91 -33.92,119.65 -72.16,170.22 -38.24,50.58 -88.81,90.35 -151.72,119.34 -62.91,28.99 -135.07,43.48 -216.48,43.48 -106.08,0 -197.67,-19.74 -274.76,-59.21 -77.1,-39.48 -136.3,-95.91 -177.63,-169.3 -41.33,-73.39 -61.99,-158.82 -61.99,-256.27zm708.66 -112.87c-8.63,-57.97 -32.38,-102.69 -71.23,-134.15 -38.85,-31.45 -87.89,-47.18 -147.1,-47.18 -56.74,0 -104.54,16.34 -143.4,49.03 -38.85,32.69 -61.98,76.79 -69.38,132.3l431.11 0z"/>
  <path class="fil3" d="M20685.06 1216.73c111.02,0 202.3,34.54 273.84,103.61 71.54,69.08 107.32,183.18 107.32,342.3l0 516.23 -260.89 0 0 -501.42c0,-164.06 -64.14,-246.09 -192.43,-246.09 -67.84,0 -120.27,22.82 -157.27,68.46 -37.01,45.64 -55.51,109.79 -55.51,192.43l0 486.62 -260.89 0 0 -951.04 227.58 0 24.06 118.42c33.3,-40.71 73.39,-72.47 120.27,-95.29 46.87,-22.82 104.85,-34.23 173.92,-34.23z"/>
  <path class="fil3" d="M19554.54 2687.84c92.52,0 174.24,17.58 245.16,52.73 70.93,35.16 125.82,85.42 164.68,150.8 38.85,65.38 58.28,141.23 58.28,227.58 0,86.35 -19.43,161.9 -58.28,226.66 -38.86,64.76 -93.75,114.72 -164.68,149.87 -70.93,35.15 -152.65,52.73 -245.16,52.73l-249.79 0 0 434.81 -277.54 0 0 -1295.19 527.33 0zm-249.79 629.09l223.89 0c65.38,0 117.18,-17.89 155.42,-53.66 38.24,-35.77 57.36,-83.88 57.36,-144.32 0,-61.68 -19.12,-110.4 -57.36,-146.17 -38.24,-35.77 -90.04,-53.66 -155.42,-53.66l-223.89 0 0 397.81z"/>
  <path class="fil3" d="M21053.27 3031.99l0 951.04 -231.28 0 -24.06 -114.72c-33.31,39.47 -72.16,70.31 -116.57,92.51 -44.41,22.2 -98.68,33.31 -162.83,33.31 -111.02,0 -201.68,-34.23 -271.99,-102.69 -70.31,-68.46 -105.46,-182.87 -105.46,-343.23l0 -516.23 260.89 0 0 484.77c0,86.35 15.11,151.41 45.33,195.21 30.22,43.79 76.79,65.68 139.69,65.68 65.38,0 115.95,-24.36 151.72,-73.08 35.77,-48.73 53.66,-116.88 53.66,-204.46l0 -468.12 260.89 0z"/>
  <path class="fil3" d="M21780.43 3020.89c111.02,0 202.3,34.54 273.84,103.61 71.54,69.08 107.32,183.18 107.32,342.3l0 516.23 -260.89 0 0 -501.42c0,-164.06 -64.14,-246.09 -192.43,-246.09 -67.84,0 -120.27,22.82 -157.27,68.46 -37.01,45.64 -55.51,109.79 -55.51,192.43l0 486.62 -260.89 0 0 -951.04 227.58 0 24.06 118.42c33.3,-40.71 73.39,-72.47 120.27,-95.29 46.87,-22.82 104.85,-34.23 173.92,-34.23z"/>
  <path class="fil3" d="M22457.63 2636.03c43.17,0 78.94,13.88 107.31,41.63 28.37,27.76 42.55,62.6 42.55,104.54 0,41.94 -14.18,77.1 -42.55,105.47 -28.37,28.37 -64.14,42.55 -107.31,42.55 -43.18,0 -79.26,-14.19 -108.24,-42.55 -28.99,-28.37 -43.48,-63.53 -43.48,-105.47 0,-41.94 14.49,-76.79 43.48,-104.54 28.99,-27.75 65.07,-41.63 108.24,-41.63zm-131.37 395.96l260.89 0 0 951.04 -260.89 0 0 -951.04z"/>
  <polygon class="fil3" points="22768.48,2687.84 23029.37,2687.84 23029.37,3983.04 22768.48,3983.04 "/>
  <polygon class="fil3" points="23210.69,2687.84 23471.58,2687.84 23471.58,3983.04 23210.69,3983.04 "/>
  <path class="fil3" d="M24589.14 3762.85l0 220.18 -133.22 0c-119.65,0 -178.24,-51.81 -175.78,-155.42 -34.54,54.28 -77.1,95.6 -127.67,123.97 -50.57,28.37 -111.63,42.56 -183.18,42.56 -106.09,0 -191.51,-24.36 -256.27,-73.09 -64.76,-48.72 -97.14,-117.49 -97.14,-206.3 0,-101.15 37.31,-179.17 111.94,-234.06 74.63,-54.89 182.87,-82.34 324.73,-82.34l188.73 0 0 -46.26c0,-43.18 -16.04,-77.41 -48.11,-102.69 -32.07,-25.29 -75.24,-37.93 -129.52,-37.93 -48.11,0 -87.58,10.49 -118.42,31.45 -30.84,20.97 -49.34,49.34 -55.51,85.11l-251.64 0c8.64,-97.45 51.81,-173 129.52,-226.66 77.71,-53.66 180.71,-80.49 309,-80.49 134.45,0 238.38,29.6 311.77,88.81 73.39,59.21 110.09,144.94 110.09,257.19l0 334.9c0,23.44 4.93,39.48 14.8,48.11 9.86,8.63 25.28,12.95 46.26,12.95l29.6 0zm-347.85 -190.58l-190.58 0c-54.28,0 -96.52,10.8 -126.75,32.38 -30.22,21.59 -45.33,52.12 -45.33,91.59 0,33.31 12.65,59.83 37.93,79.56 25.29,19.74 59.52,29.61 102.69,29.61 67.84,0 121.5,-19.43 160.98,-58.29 39.47,-38.85 59.83,-90.97 61.06,-156.35l0 -18.5z"/>
 </g>
</svg>
